<svg width="147" height="174" viewBox="0 0 147 174" fill="none" xmlns="http://www.w3.org/2000/svg">
<rect x="2.56592" y="49.2574" width="8.179" height="73.5258" rx="4.0895" transform="rotate(2 2.56592 49.2574)" fill="#16120b"/>
<rect x="15.5927" y="36.2239" width="8.179" height="117.398" rx="4.0895" transform="rotate(-2 15.5927 36.2239)" fill="#16120b"/>
<rect x="35.3705" y="8.8739" width="8.179" height="144.509" rx="4.0895" transform="rotate(1 35.3705 8.8739)" fill="#16120b"/>
<rect x="50.0594" y="19.6754" width="8.179" height="59.5567" rx="4.0895" transform="rotate(-1 50.0594 19.6754)" fill="#16120b"/>
<rect x="52.4404" y="97.6819" width="8.179" height="75.2052" rx="4.0895" transform="rotate(3 52.4404 97.6819)" fill="#16120b"/>
<rect x="69.309" width="8.179" height="70.9415" rx="4.0895" transform="rotate(4 69.309 0)" fill="#16120b"/>
<rect x="65.6697" y="128.935" width="8.179" height="44.3592" rx="4.0895" transform="rotate(-3 65.6697 128.935)" fill="#16120b"/>
<path d="M102.666 113.776C105.418 111.024 109.396 110.41 112.76 112.551L142.118 129.679C146.399 132.431 147.318 138.24 144.261 141.91C130.678 158.266 110.561 169.093 86.4167 170.976C85.3119 171.062 84.3637 170.212 84.3057 169.105L81.998 125.068C81.9413 123.987 82.7565 123.063 83.8291 122.919C91.4269 121.895 97.8773 118.564 102.666 113.776ZM84.8943 11.0529C84.971 9.95601 85.9203 9.12463 87.0159 9.21708C110.893 11.2319 130.791 22.0149 144.261 38.2346C147.319 42.2103 146.399 47.7167 142.118 50.469L112.76 67.8997C109.395 69.7346 105.418 69.1238 102.666 66.3713C97.8418 61.5475 91.332 58.1994 83.6608 57.2012C82.5696 57.0592 81.7434 56.1116 81.8202 55.0139L84.8943 11.0529Z" fill="#16120b"/>
</svg>
