<svg width="375" height="101" viewBox="0 0 375 101" fill="none" xmlns="http://www.w3.org/2000/svg">
<path d="M351.006 61.5851H370.189C372.432 61.5851 374.227 63.3799 374.227 65.5113V74.4854C374.227 76.7289 372.432 78.5238 370.189 78.5238H331.039C328.795 78.5238 327.113 76.7289 327.113 74.4854V67.3061C327.113 66.1843 327.449 65.0626 328.235 64.1651L349.099 38.701H331.198C328.954 38.701 327.159 36.9062 327.159 34.6627V25.6885C327.159 23.445 328.954 21.6501 331.198 21.6501H369.179C371.423 21.6501 373.217 23.445 373.217 25.6885V32.8678C373.217 33.9896 372.769 35.1114 372.096 36.0088L351.006 61.5851Z" fill="#3A3E5B"/>
<path d="M305.94 4.03836C305.94 1.79483 307.735 0 309.866 0H320.187C322.318 0 324.113 1.79483 324.113 4.03836V74.4854C324.113 76.7289 322.318 78.5237 320.187 78.5237H309.866C307.735 78.5237 305.94 76.7289 305.94 74.4854V4.03836Z" fill="#3A3E5B"/>
<path d="M275.681 20.304C293.405 20.304 302.94 35.2235 302.94 50.143C302.94 64.9504 293.405 79.8699 275.681 79.8699C268.053 79.8699 263.005 77.0655 259.64 72.9149V96.2477C259.64 98.379 257.845 100.174 255.602 100.174H245.393C243.262 100.174 241.467 98.379 241.467 96.2477V25.6885C241.467 23.445 243.262 21.6501 245.393 21.6501H256.611C258.294 21.6501 259.64 22.9963 259.64 24.6789V27.259C263.005 23.1084 268.053 20.304 275.681 20.304ZM272.428 62.2581C279.944 62.2581 284.543 57.098 284.543 50.143C284.543 43.0759 279.944 37.9158 272.428 37.9158C265.585 37.9158 260.201 42.515 260.201 50.143C260.201 57.6589 265.585 62.2581 272.428 62.2581Z" fill="#3A3E5B"/>
<path d="M218.051 20.304C232.073 20.304 238.467 29.5025 238.467 40.9445V74.4854C238.467 76.7289 236.672 78.5238 234.429 78.5238H224.221C221.977 78.5238 220.182 76.7289 220.182 74.4854V45.8803C220.182 39.4862 215.583 38.1401 212.667 38.1401C209.638 38.1401 205.039 39.5984 205.039 45.8803V74.4854C205.039 76.7289 203.244 78.5238 201 78.5238H190.792C188.661 78.5238 186.866 76.7289 186.866 74.4854V45.8803C186.866 39.4862 182.267 38.1401 179.238 38.1401C176.321 38.1401 171.61 39.5984 171.61 45.8803V74.4854C171.61 76.7289 169.815 78.5238 167.684 78.5238H157.476C155.232 78.5238 153.437 76.7289 153.437 74.4854V25.6885C153.437 23.445 155.232 21.6501 157.476 21.6501H168.693C170.264 21.6501 171.61 22.9963 171.61 24.6789V26.025C174.526 22.7719 179.014 20.304 185.744 20.304C193.597 20.304 198.757 23.2206 201.785 27.932C205.039 23.6693 210.311 20.304 218.051 20.304Z" fill="#3A3E5B"/>
<path d="M136.191 21.6849H146.399C148.642 21.6849 150.437 23.4798 150.437 25.7233V74.5202C150.437 76.7637 148.642 78.5586 146.399 78.5586H135.181C133.611 78.5586 132.265 77.2124 132.265 75.5298V73.3984C129.011 77.1003 124.076 79.9047 116.672 79.9047C102.538 79.9047 95.8071 68.7992 95.8071 57.245V25.7233C95.8071 23.4798 97.6019 21.6849 99.8455 21.6849H110.054C112.297 21.6849 114.092 23.4798 114.092 25.7233V52.3092C114.092 58.9276 118.13 62.1807 123.178 62.1807C128.451 62.1807 132.265 58.7033 132.265 52.3092V25.7233C132.265 23.4798 134.059 21.6849 136.191 21.6849Z" fill="#3A3E5B"/>
<path d="M74.7466 30.3437C78.1119 25.0714 83.6086 21.7061 89.2174 20.6965C91.0122 20.36 92.8071 21.7061 92.8071 23.6131V36.5134C92.8071 38.3082 91.2366 39.6544 89.5539 39.5422C76.3171 38.6448 74.7466 47.1702 74.7466 56.1444V74.5413C74.7466 76.7849 72.9518 78.5797 70.8204 78.5797H60.5002C58.3688 78.5797 56.574 76.7849 56.574 74.5413V25.7445C56.574 23.5009 58.3688 21.7061 60.5002 21.7061H70.8204C72.9518 21.7061 74.7466 23.5009 74.7466 25.7445V30.3437Z" fill="#3A3E5B"/>
<rect x="0.941162" y="35.0942" width="3" height="26.9688" rx="1.5" transform="rotate(2 0.941162 35.0942)" fill="#3A3E5B"/>
<rect x="5.71924" y="30.3137" width="3" height="43.0609" rx="1.5" transform="rotate(-2 5.71924 30.3137)" fill="#3A3E5B"/>
<rect x="12.9736" y="20.2819" width="3" height="53.005" rx="1.5" transform="rotate(1 12.9736 20.2819)" fill="#3A3E5B"/>
<rect x="18.3615" y="24.2437" width="3" height="21.845" rx="1.5" transform="rotate(-1 18.3615 24.2437)" fill="#3A3E5B"/>
<rect x="19.2347" y="52.856" width="3" height="27.5847" rx="1.5" transform="rotate(3 19.2347 52.856)" fill="#3A3E5B"/>
<rect x="25.422" y="17.027" width="3" height="26.0208" rx="1.5" transform="rotate(4 25.422 17.027)" fill="#3A3E5B"/>
<rect x="24.0872" y="64.3192" width="3" height="16.2706" rx="1.5" transform="rotate(-3 24.0872 64.3192)" fill="#3A3E5B"/>
<path d="M37.6576 58.7592C38.6672 57.75 40.126 57.5249 41.3597 58.31L52.1283 64.5922C53.698 65.6017 54.0352 67.7325 52.9144 69.0786C48.1716 74.7894 41.2562 78.6618 32.9628 79.6167C31.8619 79.7435 30.9132 78.8887 30.8553 77.782L30.141 64.1296C30.0844 63.0489 30.9042 62.1365 31.9581 61.8909C34.2225 61.3633 36.1614 60.2553 37.6576 58.7592ZM31.0502 22.3381C31.1269 21.2413 32.0766 20.4058 33.1681 20.5382C41.3702 21.5329 48.2108 25.3877 52.9144 31.0512C54.0354 32.5093 53.698 34.529 52.1283 35.5385L41.3597 41.9321C40.1259 42.6051 38.6672 42.3808 37.6576 41.3715C36.154 39.868 34.2034 38.755 31.9246 38.2298C30.8523 37.9827 30.0214 37.0463 30.0982 35.9485L31.0502 22.3381Z" fill="#3A3E5B"/>
</svg>
